<svg width="16" height="14" viewBox="0 0 16 14" fill="none" xmlns="http://www.w3.org/2000/svg">
<g filter="url(#filter0_d_1205_324)">
<path d="M8.66667 3.33333V0.666667C8.66667 0.477778 8.73067 0.319333 8.85867 0.191333C8.98622 0.0637777 9.14444 0 9.33333 0H13.3333C13.5222 0 13.6804 0.0637777 13.808 0.191333C13.936 0.319333 14 0.477778 14 0.666667V3.33333C14 3.52222 13.936 3.68044 13.808 3.808C13.6804 3.936 13.5222 4 13.3333 4H9.33333C9.14444 4 8.98622 3.936 8.85867 3.808C8.73067 3.68044 8.66667 3.52222 8.66667 3.33333ZM2 6V0.666667C2 0.477778 2.064 0.319333 2.192 0.191333C2.31956 0.0637777 2.47778 0 2.66667 0H6.66667C6.85556 0 7.014 0.0637777 7.142 0.191333C7.26956 0.319333 7.33333 0.477778 7.33333 0.666667V6C7.33333 6.18889 7.26956 6.34711 7.142 6.47467C7.014 6.60267 6.85556 6.66667 6.66667 6.66667H2.66667C2.47778 6.66667 2.31956 6.60267 2.192 6.47467C2.064 6.34711 2 6.18889 2 6ZM8.66667 11.3333V6C8.66667 5.81111 8.73067 5.65267 8.85867 5.52467C8.98622 5.39711 9.14444 5.33333 9.33333 5.33333H13.3333C13.5222 5.33333 13.6804 5.39711 13.808 5.52467C13.936 5.65267 14 5.81111 14 6V11.3333C14 11.5222 13.936 11.6804 13.808 11.808C13.6804 11.936 13.5222 12 13.3333 12H9.33333C9.14444 12 8.98622 11.936 8.85867 11.808C8.73067 11.6804 8.66667 11.5222 8.66667 11.3333ZM2 11.3333V8.66667C2 8.47778 2.064 8.31933 2.192 8.19133C2.31956 8.06378 2.47778 8 2.66667 8H6.66667C6.85556 8 7.014 8.06378 7.142 8.19133C7.26956 8.31933 7.33333 8.47778 7.33333 8.66667V11.3333C7.33333 11.5222 7.26956 11.6804 7.142 11.808C7.014 11.936 6.85556 12 6.66667 12H2.66667C2.47778 12 2.31956 11.936 2.192 11.808C2.064 11.6804 2 11.5222 2 11.3333ZM3.33333 5.33333H6V1.33333H3.33333V5.33333ZM10 10.6667H12.6667V6.66667H10V10.6667ZM10 2.66667H12.6667V1.33333H10V2.66667ZM3.33333 10.6667H6V9.33333H3.33333V10.6667Z" fill="black"/>
<path d="M2.66699 8.5H6.66699C6.69835 8.50003 6.72135 8.50411 6.74023 8.51172L6.78906 8.5459C6.81771 8.57508 6.83301 8.60476 6.83301 8.66699V11.333C6.83301 11.3962 6.81707 11.4251 6.78809 11.4541C6.75836 11.4838 6.72947 11.4999 6.66699 11.5H2.66699C2.6043 11.5 2.575 11.4843 2.5459 11.4551L2.54492 11.4541L2.51172 11.4062C2.5041 11.3876 2.5 11.3644 2.5 11.333V8.66699C2.5 8.60429 2.51611 8.57471 2.5459 8.54492C2.57483 8.51604 2.60387 8.5 2.66699 8.5ZM9.33301 5.83301H13.333C13.396 5.83301 13.4252 5.84915 13.4541 5.87793C13.4839 5.90771 13.5 5.93729 13.5 6V11.333C13.5 11.3957 13.4843 11.425 13.4551 11.4541L13.4541 11.4551C13.425 11.4843 13.3957 11.5 13.333 11.5H9.33301C9.27057 11.4999 9.24193 11.4842 9.21289 11.4551L9.21191 11.4541L9.17773 11.4062C9.17018 11.3876 9.16699 11.3643 9.16699 11.333V6C9.16699 5.9373 9.18214 5.90771 9.21191 5.87793C9.24084 5.849 9.27 5.83306 9.33301 5.83301ZM2.83301 11.167H6.5V8.83301H2.83301V11.167ZM9.5 11.167H13.167V6.16699H9.5V11.167ZM2.66699 0.5H6.66699C6.69835 0.500027 6.72135 0.504111 6.74023 0.511719L6.78906 0.545898C6.81771 0.575081 6.83301 0.60476 6.83301 0.666992V6C6.83301 6.06324 6.81707 6.09211 6.78809 6.12109C6.75841 6.15072 6.72936 6.16694 6.66699 6.16699H2.66699C2.60433 6.16699 2.57499 6.15125 2.5459 6.12207L2.54492 6.12012C2.51584 6.09108 2.5 6.06255 2.5 6V0.666992C2.5 0.604285 2.51611 0.574705 2.5459 0.544922C2.57483 0.51604 2.60387 0.5 2.66699 0.5ZM2.83301 5.83301H6.5V0.833008H2.83301V5.83301ZM9.33301 0.5H13.333C13.3961 0.5 13.4252 0.51604 13.4541 0.544922C13.4839 0.574705 13.5 0.604285 13.5 0.666992V3.33301C13.5 3.3957 13.4843 3.425 13.4551 3.4541L13.4541 3.45508C13.425 3.48428 13.3957 3.5 13.333 3.5H9.33301C9.27057 3.49995 9.24193 3.48421 9.21289 3.45508L9.21191 3.4541L9.17773 3.40625C9.17018 3.38762 9.16699 3.3643 9.16699 3.33301V0.666992C9.16699 0.604405 9.18224 0.574647 9.21191 0.544922C9.24084 0.515992 9.27 0.500055 9.33301 0.5ZM9.5 3.16699H13.167V0.833008H9.5V3.16699Z" stroke="white"/>
</g>
<defs>
<filter id="filter0_d_1205_324" x="-2" y="0" width="20" height="20" filterUnits="userSpaceOnUse" color-interpolation-filters="sRGB">
<feFlood flood-opacity="0" result="BackgroundImageFix"/>
<feColorMatrix in="SourceAlpha" type="matrix" values="0 0 0 0 0 0 0 0 0 0 0 0 0 0 0 0 0 0 127 0" result="hardAlpha"/>
<feOffset dy="4"/>
<feGaussianBlur stdDeviation="2"/>
<feComposite in2="hardAlpha" operator="out"/>
<feColorMatrix type="matrix" values="0 0 0 0 0 0 0 0 0 0 0 0 0 0 0 0 0 0 0.25 0"/>
<feBlend mode="normal" in2="BackgroundImageFix" result="effect1_dropShadow_1205_324"/>
<feBlend mode="normal" in="SourceGraphic" in2="effect1_dropShadow_1205_324" result="shape"/>
</filter>
</defs>
</svg>
